<?xml version="1.0" standalone="no"?><!DOCTYPE svg PUBLIC "-//W3C//DTD SVG 1.1//EN" "http://www.w3.org/Graphics/SVG/1.1/DTD/svg11.dtd"><svg t="1683793461813" class="icon" viewBox="0 0 1024 1024" version="1.1" xmlns="http://www.w3.org/2000/svg" p-id="2489" xmlns:xlink="http://www.w3.org/1999/xlink" width="200" height="200"><path d="M96 208a16 16 0 0 1 16-16h800a16 16 0 0 1 16 16v32a16 16 0 0 1-16 16h-800a16 16 0 0 1-16-16v-32z m0 288a16 16 0 0 1 16-16h800a16 16 0 0 1 16 16v32a16 16 0 0 1-16 16h-800a16 16 0 0 1-16-16v-32z m16 272a16 16 0 0 0-16 16v32a16 16 0 0 0 16 16h480a16 16 0 0 0 16-16v-32a16 16 0 0 0-16-16h-480z" fill="#000000" p-id="2490"></path></svg>